<svg width="26" height="28" viewBox="0 0 26 28" fill="none" xmlns="http://www.w3.org/2000/svg">
<path d="M14.8404 6.7561H12.4654C11.8123 6.7561 11.2779 7.29048 11.2779 7.9436C11.2779 8.59673 11.8123 9.1311 12.4654 9.1311H13.5936C14.2467 9.1311 14.7811 9.66548 14.7811 10.3186C14.7811 10.9717 14.2467 11.5061 13.5936 11.5061H11.1592" stroke="#574F44" stroke-miterlimit="10"/>
<path d="M13.1187 5.5686V6.7561" stroke="#574F44" stroke-miterlimit="10"/>
<path d="M13.1187 11.4468V12.5749" stroke="#574F44" stroke-miterlimit="10"/>
<path d="M12.9997 14.653C16.0821 14.653 18.581 12.1542 18.581 9.07173C18.581 5.98929 16.0821 3.49048 12.9997 3.49048C9.91727 3.49048 7.41846 5.98929 7.41846 9.07173C7.41846 12.1542 9.91727 14.653 12.9997 14.653Z" stroke="#574F44" stroke-miterlimit="10"/>
<path d="M6.5874 4.20289C8.13115 2.00602 10.7437 0.581017 13.653 0.699767C16.5624 0.818517 18.9968 2.36227 20.4218 4.61852" stroke="#574F44" stroke-miterlimit="10" stroke-dasharray="1.99 1.99"/>
<path d="M8.72485 9.07153H10.0905" stroke="#574F44" stroke-miterlimit="10"/>
<path d="M16.0278 9.07153H17.3341" stroke="#574F44" stroke-miterlimit="10"/>
<path d="M23.0342 27.2997V23.0247C23.0342 23.0247 23.0342 22.9653 22.9749 22.9653H14.128C14.128 22.9653 14.0686 22.9653 14.0686 23.0247V27.2997" stroke="#574F44" stroke-miterlimit="10"/>
<path d="M15.553 22.9654V17.4435C15.6124 17.0873 15.8499 16.6123 16.0874 16.3748L19.4717 12.7529C20.303 11.6841 22.0249 12.8123 21.0749 13.7623L18.403 17.5029H19.7092L22.9749 14.0591C22.9749 14.0591 23.153 11.981 23.2717 11.6841L21.728 7.82476C21.4905 7.17163 21.4311 6.45913 21.6686 5.80601C21.8467 5.33101 22.0842 4.91538 22.3217 4.79663L24.9936 11.4466C25.1124 11.6841 25.053 15.2466 25.053 15.2466L21.3124 22.9654" stroke="#574F44" stroke-miterlimit="10"/>
<path d="M2.96533 27.2997V23.0247C2.96533 23.0247 2.96533 22.9653 3.02471 22.9653H11.8716C11.8716 22.9653 11.931 22.9653 11.931 23.0247V27.2997" stroke="#574F44" stroke-miterlimit="10"/>
<path d="M10.4467 22.9654V17.4435C10.3873 17.0873 10.1498 16.6123 9.97168 16.3748L6.58731 12.7529C5.75606 11.6841 4.03418 12.8123 4.98418 13.7623L7.65605 17.5029H6.3498L3.08418 14.0591C3.08418 14.0591 2.90605 11.981 2.7873 11.6841L4.33105 7.82476C4.56855 7.17163 4.62793 6.45913 4.39043 5.80601C4.2123 5.33101 3.9748 4.91538 3.7373 4.79663L1.06543 11.4466C0.94668 11.6841 1.00605 15.2466 1.00605 15.2466L4.74668 22.9654" stroke="#574F44" stroke-miterlimit="10"/>
</svg>
