<svg width="130" height="126" viewBox="0 0 130 126" fill="none" xmlns="http://www.w3.org/2000/svg">
<path d="M118.305 48.3863H79.8738V15.8215C93.3431 19.312 104.677 28.3885 110.69 40.7423C111.582 42.5872 113.847 43.3753 115.757 42.5038C117.657 41.6369 118.477 39.449 117.585 37.6133C109.85 21.7411 94.5619 10.5276 76.702 7.63041C75.5839 7.4589 74.4659 7.75094 73.607 8.44627C72.7528 9.15088 72.2634 10.1753 72.2634 11.2601V52.067C72.2634 54.102 73.9621 55.7476 76.0686 55.7476H118.305C120.411 55.7476 122.115 54.102 122.115 52.067C122.115 50.0366 120.411 48.3863 118.305 48.3863ZM103.074 66.5021H61.1885V38.1417C61.1885 36.116 59.4851 34.4657 57.3786 34.4657C55.272 34.4657 53.5686 36.116 53.5686 38.1417V70.1828C53.5686 72.2178 56.3935 73.8588 58.5 73.8588H99.0964C97.1722 94.4592 79.1972 110.647 57.3786 110.647C34.2836 110.647 15.4928 92.4937 15.4928 70.1828C15.4928 47.8671 34.2836 29.7143 57.3786 29.7143C59.4851 29.7143 61.1885 28.064 61.1885 26.0382C61.1885 24.0032 59.4851 22.3576 57.3786 22.3576C30.0849 22.3576 7.8728 43.811 7.8728 70.1828C7.8728 96.5499 30.0849 118.003 57.3786 118.003C84.677 118.003 106.88 96.5499 106.88 70.1828C106.88 68.1477 105.181 66.5021 103.074 66.5021Z" fill="black" fill-opacity="0.15"/>
</svg>
