<svg width="132" height="132" viewBox="0 0 132 132" fill="none" xmlns="http://www.w3.org/2000/svg">
<path d="M60.844 34.031C59.4201 34.031 58.2659 35.1852 58.2659 36.6091V119.11C58.2659 120.534 59.4201 121.688 60.844 121.688C62.2679 121.688 63.4221 120.534 63.4221 119.11V36.6091C63.4221 35.1855 62.2679 34.031 60.844 34.031Z" fill="#D9D9D9"/>
<path d="M35.0627 90.7497H35.1236C36.5475 90.7497 37.7017 89.5953 37.7017 88.1716C37.7017 86.7477 36.5475 85.5935 35.1236 85.5935H35.0627C33.6388 85.5935 32.4846 86.7477 32.4846 88.1716C32.4846 89.5955 33.6388 90.7497 35.0627 90.7497Z" fill="#D9D9D9"/>
<path d="M73.7341 44.0772C73.7341 42.6535 72.5799 41.4991 71.156 41.4991C69.7321 41.4991 68.5779 42.6535 68.5779 44.0772V52.0784L68.5787 119.11C68.5787 120.534 69.7329 121.688 71.1568 121.688C72.5804 121.688 73.7349 120.534 73.7349 119.11L73.7341 52.0784V44.0772Z" fill="#D9D9D9"/>
<path d="M71.156 39.2481C72.5799 39.2481 73.7341 38.0936 73.7341 36.67V36.6091C73.7341 35.1852 72.5799 34.031 71.156 34.031C69.7321 34.031 68.5779 35.1852 68.5779 36.6091V36.67C68.5779 38.0939 69.7324 39.2481 71.156 39.2481Z" fill="#D9D9D9"/>
<path d="M9.34234 126.844H9.28149C7.85785 126.844 6.70337 127.998 6.70337 129.422C6.70337 130.846 7.8576 132 9.28149 132H9.34234C10.7662 132 11.9205 130.846 11.9205 129.422C11.9205 127.998 10.7665 126.844 9.34234 126.844Z" fill="#D9D9D9"/>
<path d="M122.719 126.844H122.658C121.234 126.844 120.08 127.998 120.08 129.422C120.08 130.846 121.234 132 122.658 132H122.719C124.142 132 125.297 130.846 125.297 129.422C125.297 127.998 124.142 126.844 122.719 126.844Z" fill="#D9D9D9"/>
<path d="M115.25 126.844H104.672V121.428C110.548 120.23 114.985 115.021 114.985 108.796C114.985 101.687 109.202 95.9044 102.094 95.9044C94.9861 95.9044 89.2033 101.687 89.2033 108.796C89.2033 115.021 93.6385 120.23 99.5153 121.427V126.844H84.0474V26.2971C84.0474 24.8735 82.8929 23.719 81.4692 23.719H78.8908V15.9839C78.8908 14.5602 77.7366 13.4057 76.3127 13.4057H75.9863C75.0515 9.78759 72.1967 6.93284 68.5784 5.99827V2.57812C68.5784 1.15448 67.4239 0 66.0002 0C64.5763 0 63.4221 1.15448 63.4221 2.57812V5.99852C59.8037 6.93335 56.9492 9.78759 56.0146 13.406H55.6875C54.2638 13.406 53.1093 14.5605 53.1093 15.9841V23.7193H50.5315C49.1076 23.7193 47.9534 24.8738 47.9534 26.2974V75.2812H19.5942C18.1706 75.2812 17.0161 76.4357 17.0161 77.8594V126.844H16.7493C15.3256 126.844 14.1711 127.998 14.1711 129.422C14.1711 130.846 15.3256 132 16.7493 132H19.5942H50.5315H81.4692H115.25C116.674 132 117.829 130.846 117.829 129.422C117.829 127.998 116.675 126.844 115.25 126.844ZM47.9534 85.5935H42.531C41.1071 85.5935 39.9529 86.7477 39.9529 88.1716C39.9529 89.5953 41.1071 90.7497 42.531 90.7497H47.9534V95.9055H35.0627C33.6388 95.9055 32.4846 97.06 32.4846 98.4836C32.4846 99.9072 33.6388 101.062 35.0627 101.062H47.9534V106.218H35.0627C33.6388 106.218 32.4846 107.373 32.4846 108.797C32.4846 110.22 33.6388 111.375 35.0627 111.375H47.9534V116.531H35.0627C33.6388 116.531 32.4846 117.685 32.4846 119.109C32.4846 120.532 33.6388 121.687 35.0627 121.687H47.9534V126.844H22.1724V80.4375H47.9534V85.5935ZM66.0002 10.8284C67.9037 10.8284 69.5653 11.8676 70.4586 13.4057H61.5419C62.4352 11.8676 64.0968 10.8284 66.0002 10.8284ZM58.2656 18.562H73.7346V23.719H58.2656V18.562ZM78.8911 126.844H53.1096V77.8594V28.8753H55.6875H76.3127H78.8911V126.844ZM102.093 111.374C100.669 111.374 99.5153 112.529 99.5153 113.953V116.087C96.5146 115.023 94.3596 112.157 94.3596 108.796C94.3596 104.531 97.829 101.061 102.094 101.061C106.359 101.061 109.828 104.531 109.828 108.796C109.828 112.157 107.673 115.023 104.672 116.087V113.953C104.672 112.529 103.517 111.374 102.093 111.374Z" fill="#D9D9D9"/>
</svg>
