<svg width="112" height="112" viewBox="0 0 112 112" fill="none" xmlns="http://www.w3.org/2000/svg">
<g clip-path="url(#clip0_141_56)">
<path d="M84 7C85.8565 7 87.637 7.7375 88.9497 9.05025C90.2625 10.363 91 12.1435 91 14V98C91 99.8565 90.2625 101.637 88.9497 102.95C87.637 104.262 85.8565 105 84 105H28C26.1435 105 24.363 104.262 23.0503 102.95C21.7375 101.637 21 99.8565 21 98V14C21 12.1435 21.7375 10.363 23.0503 9.05025C24.363 7.7375 26.1435 7 28 7H84ZM28 0C24.287 0 20.726 1.475 18.1005 4.10051C15.475 6.72601 14 10.287 14 14V98C14 101.713 15.475 105.274 18.1005 107.899C20.726 110.525 24.287 112 28 112H84C87.713 112 91.274 110.525 93.8995 107.899C96.525 105.274 98 101.713 98 98V14C98 10.287 96.525 6.72601 93.8995 4.10051C91.274 1.475 87.713 0 84 0L28 0Z" fill="#635952"/>
<path d="M28 17.5C28 16.5717 28.3687 15.6815 29.0251 15.0251C29.6815 14.3687 30.5717 14 31.5 14H80.5C81.4283 14 82.3185 14.3687 82.9749 15.0251C83.6313 15.6815 84 16.5717 84 17.5V31.5C84 32.4283 83.6313 33.3185 82.9749 33.9749C82.3185 34.6313 81.4283 35 80.5 35H31.5C30.5717 35 29.6815 34.6313 29.0251 33.9749C28.3687 33.3185 28 32.4283 28 31.5V17.5ZM28 45.5C28 44.5717 28.3687 43.6815 29.0251 43.0251C29.6815 42.3687 30.5717 42 31.5 42H38.5C39.4283 42 40.3185 42.3687 40.9749 43.0251C41.6313 43.6815 42 44.5717 42 45.5V52.5C42 53.4283 41.6313 54.3185 40.9749 54.9749C40.3185 55.6312 39.4283 56 38.5 56H31.5C30.5717 56 29.6815 55.6312 29.0251 54.9749C28.3687 54.3185 28 53.4283 28 52.5V45.5ZM28 66.5C28 65.5717 28.3687 64.6815 29.0251 64.0251C29.6815 63.3687 30.5717 63 31.5 63H38.5C39.4283 63 40.3185 63.3687 40.9749 64.0251C41.6313 64.6815 42 65.5717 42 66.5V73.5C42 74.4283 41.6313 75.3185 40.9749 75.9749C40.3185 76.6313 39.4283 77 38.5 77H31.5C30.5717 77 29.6815 76.6313 29.0251 75.9749C28.3687 75.3185 28 74.4283 28 73.5V66.5ZM28 87.5C28 86.5717 28.3687 85.6815 29.0251 85.0251C29.6815 84.3687 30.5717 84 31.5 84H38.5C39.4283 84 40.3185 84.3687 40.9749 85.0251C41.6313 85.6815 42 86.5717 42 87.5V94.5C42 95.4283 41.6313 96.3185 40.9749 96.9749C40.3185 97.6313 39.4283 98 38.5 98H31.5C30.5717 98 29.6815 97.6313 29.0251 96.9749C28.3687 96.3185 28 95.4283 28 94.5V87.5ZM49 45.5C49 44.5717 49.3687 43.6815 50.0251 43.0251C50.6815 42.3687 51.5717 42 52.5 42H59.5C60.4283 42 61.3185 42.3687 61.9749 43.0251C62.6313 43.6815 63 44.5717 63 45.5V52.5C63 53.4283 62.6313 54.3185 61.9749 54.9749C61.3185 55.6312 60.4283 56 59.5 56H52.5C51.5717 56 50.6815 55.6312 50.0251 54.9749C49.3687 54.3185 49 53.4283 49 52.5V45.5ZM49 66.5C49 65.5717 49.3687 64.6815 50.0251 64.0251C50.6815 63.3687 51.5717 63 52.5 63H59.5C60.4283 63 61.3185 63.3687 61.9749 64.0251C62.6313 64.6815 63 65.5717 63 66.5V73.5C63 74.4283 62.6313 75.3185 61.9749 75.9749C61.3185 76.6313 60.4283 77 59.5 77H52.5C51.5717 77 50.6815 76.6313 50.0251 75.9749C49.3687 75.3185 49 74.4283 49 73.5V66.5ZM49 87.5C49 86.5717 49.3687 85.6815 50.0251 85.0251C50.6815 84.3687 51.5717 84 52.5 84H59.5C60.4283 84 61.3185 84.3687 61.9749 85.0251C62.6313 85.6815 63 86.5717 63 87.5V94.5C63 95.4283 62.6313 96.3185 61.9749 96.9749C61.3185 97.6313 60.4283 98 59.5 98H52.5C51.5717 98 50.6815 97.6313 50.0251 96.9749C49.3687 96.3185 49 95.4283 49 94.5V87.5ZM70 45.5C70 44.5717 70.3687 43.6815 71.0251 43.0251C71.6815 42.3687 72.5717 42 73.5 42H80.5C81.4283 42 82.3185 42.3687 82.9749 43.0251C83.6313 43.6815 84 44.5717 84 45.5V52.5C84 53.4283 83.6313 54.3185 82.9749 54.9749C82.3185 55.6312 81.4283 56 80.5 56H73.5C72.5717 56 71.6815 55.6312 71.0251 54.9749C70.3687 54.3185 70 53.4283 70 52.5V45.5ZM70 66.5C70 65.5717 70.3687 64.6815 71.0251 64.0251C71.6815 63.3687 72.5717 63 73.5 63H80.5C81.4283 63 82.3185 63.3687 82.9749 64.0251C83.6313 64.6815 84 65.5717 84 66.5V94.5C84 95.4283 83.6313 96.3185 82.9749 96.9749C82.3185 97.6313 81.4283 98 80.5 98H73.5C72.5717 98 71.6815 97.6313 71.0251 96.9749C70.3687 96.3185 70 95.4283 70 94.5V66.5Z" fill="#635952"/>
</g>
<defs>
<clipPath id="clip0_141_56">
<rect width="112" height="112" fill="white"/>
</clipPath>
</defs>
</svg>
