<svg width="65" height="65" viewBox="0 0 65 65" fill="none" xmlns="http://www.w3.org/2000/svg">
<path d="M42.7976 23.5242C42.7976 17.8712 38.1786 13.2725 32.5012 13.2725C26.8239 13.2725 22.2048 17.8712 22.2048 23.5242C22.2048 29.1771 26.8239 33.7759 32.5012 33.7759C38.1786 33.7759 42.7976 29.1771 42.7976 23.5242Z" fill="#CCA66F"/>
<path d="M32.4954 64.9953L36.6686 59.5363C41.0246 53.7696 55.2363 34.1213 55.2363 23.379C55.2373 9.39693 46.1007 0.00341797 32.5005 0.00341797C18.9002 0.00341797 9.76367 9.39693 9.76367 23.3801C9.76367 34.948 26.4524 57.0643 28.3506 59.5414L32.4954 64.9953ZM18.1416 23.5233C18.1416 15.6308 24.5827 9.20904 32.5005 9.20904C40.4183 9.20904 46.8594 15.6308 46.8594 23.5233C46.8594 31.4157 40.4183 37.8375 32.5005 37.8375C24.5827 37.8375 18.1416 31.4167 18.1416 23.5233Z" fill="#CCA66F"/>
</svg>
