<svg width="22" height="22" viewBox="0 0 22 22" fill="none" xmlns="http://www.w3.org/2000/svg">
<path d="M14.4853 7.962C14.4853 6.04869 12.9219 4.49219 11.0003 4.49219C9.07876 4.49219 7.51538 6.04869 7.51538 7.962C7.51538 9.87531 9.07876 11.4318 11.0003 11.4318C12.9219 11.4318 14.4853 9.87531 14.4853 7.962Z" fill="#574F44"/>
<path d="M10.9985 21.9987L12.411 20.1511C13.8853 18.1992 18.6954 11.5491 18.6954 7.91322C18.6958 3.18081 15.6034 0.00146484 11.0002 0.00146484C6.39706 0.00146484 3.30469 3.18081 3.30469 7.91356C3.30469 11.8289 8.95319 19.3144 9.59566 20.1528L10.9985 21.9987ZM6.14028 7.96203C6.14028 5.29075 8.32034 3.11721 11.0002 3.11721C13.6801 3.11721 15.8602 5.29075 15.8602 7.96203C15.8602 10.6333 13.6801 12.8068 11.0002 12.8068C8.32034 12.8068 6.14028 10.6337 6.14028 7.96203Z" fill="#574F44"/>
</svg>
