<svg width="112" height="117" viewBox="0 0 112 117" fill="none" xmlns="http://www.w3.org/2000/svg">
<path d="M47.386 5.37197V15.284H3.13603C1.48403 15.284 0.186035 16.582 0.186035 18.234V113.224C0.186035 114.876 1.48403 116.174 3.13603 116.174H108.982C110.634 116.174 111.932 114.876 111.932 113.224V3.01197C111.932 1.35997 110.516 -0.0560324 108.864 0.0619676L50.218 2.42197C48.566 2.42197 47.386 3.71997 47.386 5.37197ZM23.786 110.274H6.08603V21.184H47.032V38.412H26.736C25.084 38.412 23.786 39.71 23.786 41.362V110.274ZM53.758 110.274H46.324V103.194H53.758V110.274ZM70.16 110.274H59.658V100.48C59.658 98.828 58.36 97.53 56.708 97.53H43.374C41.722 97.53 40.424 98.828 40.424 100.48V110.392H29.686V44.312H70.16V110.274ZM105.914 110.274H76.06V41.362C76.06 39.71 74.762 38.412 73.11 38.412H53.286V8.20397L105.914 6.07997V110.274Z" fill="black" fill-opacity="0.15"/>
<path d="M13.756 32.2759H17.2961C18.0041 32.2759 18.4761 31.8039 18.4761 31.0959V27.5559C18.4761 26.8479 18.0041 26.3759 17.2961 26.3759H13.756C13.048 26.3759 12.576 26.8479 12.576 27.5559V31.0959C12.576 31.8039 13.166 32.2759 13.756 32.2759Z" fill="black" fill-opacity="0.15"/>
<path d="M34.4061 32.2759H37.9461C38.6541 32.2759 39.1261 31.8039 39.1261 31.0959V27.5559C39.1261 26.8479 38.6541 26.3759 37.9461 26.3759H34.4061C33.6981 26.3759 33.2261 26.8479 33.2261 27.5559V31.0959C33.2261 31.8039 33.8161 32.2759 34.4061 32.2759Z" fill="black" fill-opacity="0.15"/>
<path d="M65.6761 13.632H62.1361C61.4281 13.632 60.9561 14.104 60.9561 14.812V18.352C60.9561 19.06 61.4281 19.532 62.1361 19.532H65.6761C66.3841 19.532 66.8561 19.06 66.8561 18.352V14.812C66.8561 14.222 66.3841 13.632 65.6761 13.632Z" fill="black" fill-opacity="0.15"/>
<path d="M83.73 13.632H80.19C79.482 13.632 79.01 14.104 79.01 14.812V18.352C79.01 19.06 79.482 19.532 80.19 19.532H83.73C84.438 19.532 84.91 19.06 84.91 18.352V14.812C84.91 14.222 84.438 13.632 83.73 13.632Z" fill="black" fill-opacity="0.15"/>
<path d="M99.3061 13.632H95.7661C95.0581 13.632 94.5861 14.104 94.5861 14.812V18.352C94.5861 19.06 95.0581 19.532 95.7661 19.532H99.3061C100.014 19.532 100.486 19.06 100.486 18.352V14.812C100.486 14.222 100.014 13.632 99.3061 13.632Z" fill="black" fill-opacity="0.15"/>
<path d="M65.6761 30.152H62.1361C61.4281 30.152 60.9561 30.624 60.9561 31.332V34.872C60.9561 35.58 61.4281 36.052 62.1361 36.052H65.6761C66.3841 36.052 66.8561 35.58 66.8561 34.872V31.332C66.8561 30.742 66.3841 30.152 65.6761 30.152Z" fill="black" fill-opacity="0.15"/>
<path d="M83.73 30.152H80.19C79.482 30.152 79.01 30.624 79.01 31.332V34.872C79.01 35.58 79.482 36.052 80.19 36.052H83.73C84.438 36.052 84.91 35.58 84.91 34.872V31.332C84.91 30.742 84.438 30.152 83.73 30.152Z" fill="black" fill-opacity="0.15"/>
<path d="M99.3061 30.152H95.7661C95.0581 30.152 94.5861 30.624 94.5861 31.332V34.872C94.5861 35.58 95.0581 36.052 95.7661 36.052H99.3061C100.014 36.052 100.486 35.58 100.486 34.872V31.332C100.486 30.742 100.014 30.152 99.3061 30.152Z" fill="black" fill-opacity="0.15"/>
<path d="M83.73 44.6659H80.19C79.482 44.6659 79.01 45.1379 79.01 45.8459V49.3859C79.01 50.0939 79.482 50.5659 80.19 50.5659H83.73C84.438 50.5659 84.91 50.0939 84.91 49.3859V45.8459C84.91 45.2559 84.438 44.6659 83.73 44.6659Z" fill="black" fill-opacity="0.15"/>
<path d="M99.3061 44.6659H95.7661C95.0581 44.6659 94.5861 45.1379 94.5861 45.8459V49.3859C94.5861 50.0939 95.0581 50.5659 95.7661 50.5659H99.3061C100.014 50.5659 100.486 50.0939 100.486 49.3859V45.8459C100.486 45.2559 100.014 44.6659 99.3061 44.6659Z" fill="black" fill-opacity="0.15"/>
<path d="M83.73 57.6459H80.19C79.482 57.6459 79.01 58.1179 79.01 58.8259V62.3659C79.01 63.0739 79.482 63.5459 80.19 63.5459H83.73C84.438 63.5459 84.91 63.0739 84.91 62.3659V58.8259C84.91 58.2359 84.438 57.6459 83.73 57.6459Z" fill="black" fill-opacity="0.15"/>
<path d="M99.3061 57.6459H95.7661C95.0581 57.6459 94.5861 58.1179 94.5861 58.8259V62.3659C94.5861 63.0739 95.0581 63.5459 95.7661 63.5459H99.3061C100.014 63.5459 100.486 63.0739 100.486 62.3659V58.8259C100.486 58.2359 100.014 57.6459 99.3061 57.6459Z" fill="black" fill-opacity="0.15"/>
<path d="M83.73 71.8059H80.19C79.482 71.8059 79.01 72.2779 79.01 72.9859V76.5259C79.01 77.2339 79.482 77.7059 80.19 77.7059H83.73C84.438 77.7059 84.91 77.2339 84.91 76.5259V72.9859C84.91 72.3959 84.438 71.8059 83.73 71.8059Z" fill="black" fill-opacity="0.15"/>
<path d="M99.3061 71.8059H95.7661C95.0581 71.8059 94.5861 72.2779 94.5861 72.9859V76.5259C94.5861 77.2339 95.0581 77.7059 95.7661 77.7059H99.3061C100.014 77.7059 100.486 77.2339 100.486 76.5259V72.9859C100.486 72.3959 100.014 71.8059 99.3061 71.8059Z" fill="black" fill-opacity="0.15"/>
<path d="M83.73 85.9659H80.19C79.482 85.9659 79.01 86.4379 79.01 87.1459V90.6859C79.01 91.3939 79.482 91.8659 80.19 91.8659H83.73C84.438 91.8659 84.91 91.3939 84.91 90.6859V87.1459C84.91 86.5559 84.438 85.9659 83.73 85.9659Z" fill="black" fill-opacity="0.15"/>
<path d="M99.3061 85.9659H95.7661C95.0581 85.9659 94.5861 86.4379 94.5861 87.1459V90.6859C94.5861 91.3939 95.0581 91.8659 95.7661 91.8659H99.3061C100.014 91.8659 100.486 91.3939 100.486 90.6859V87.1459C100.486 86.5559 100.014 85.9659 99.3061 85.9659Z" fill="black" fill-opacity="0.15"/>
<path d="M83.73 100.126H80.19C79.482 100.126 79.01 100.598 79.01 101.306V104.846C79.01 105.554 79.482 106.026 80.19 106.026H83.73C84.438 106.026 84.91 105.554 84.91 104.846V101.306C84.91 100.716 84.438 100.126 83.73 100.126Z" fill="black" fill-opacity="0.15"/>
<path d="M99.3061 100.126H95.7661C95.0581 100.126 94.5861 100.598 94.5861 101.306V104.846C94.5861 105.554 95.0581 106.026 95.7661 106.026H99.3061C100.014 106.026 100.486 105.554 100.486 104.846V101.306C100.486 100.716 100.014 100.126 99.3061 100.126Z" fill="black" fill-opacity="0.15"/>
<path d="M13.756 46.2H17.2961C18.0041 46.2 18.4761 45.728 18.4761 45.02V41.48C18.4761 40.772 18.0041 40.3 17.2961 40.3H13.756C13.048 40.3 12.576 40.772 12.576 41.48V45.02C12.576 45.728 13.166 46.2 13.756 46.2Z" fill="black" fill-opacity="0.15"/>
<path d="M13.756 60.124H17.2961C18.0041 60.124 18.4761 59.652 18.4761 58.944V55.404C18.4761 54.696 18.0041 54.224 17.2961 54.224H13.756C13.048 54.224 12.576 54.696 12.576 55.404V58.944C12.576 59.652 13.166 60.124 13.756 60.124Z" fill="black" fill-opacity="0.15"/>
<path d="M13.756 74.048H17.2961C18.0041 74.048 18.4761 73.576 18.4761 72.868V69.328C18.4761 68.62 18.0041 68.148 17.2961 68.148H13.756C13.048 68.148 12.576 68.62 12.576 69.328V72.868C12.576 73.576 13.166 74.048 13.756 74.048Z" fill="black" fill-opacity="0.15"/>
<path d="M13.756 87.972H17.2961C18.0041 87.972 18.4761 87.5 18.4761 86.792V83.252C18.4761 82.544 18.0041 82.072 17.2961 82.072H13.756C13.048 82.072 12.576 82.544 12.576 83.252V86.792C12.576 87.5 13.166 87.972 13.756 87.972Z" fill="black" fill-opacity="0.15"/>
<path d="M13.756 101.896H17.2961C18.0041 101.896 18.4761 101.424 18.4761 100.716V97.1759C18.4761 96.4679 18.0041 95.9959 17.2961 95.9959H13.756C13.048 95.9959 12.576 96.4679 12.576 97.1759V100.716C12.576 101.424 13.166 101.896 13.756 101.896Z" fill="black" fill-opacity="0.15"/>
<path d="M41.6039 50.212H38.0639C37.3559 50.212 36.8839 50.684 36.8839 51.392V54.932C36.8839 55.64 37.3559 56.112 38.0639 56.112H41.6039C42.3119 56.112 42.7839 55.64 42.7839 54.932V51.392C42.7839 50.802 42.3119 50.212 41.6039 50.212Z" fill="black" fill-opacity="0.15"/>
<path d="M62.0181 50.212H58.4781C57.7701 50.212 57.2981 50.684 57.2981 51.392V54.932C57.2981 55.64 57.7701 56.112 58.4781 56.112H62.0181C62.7261 56.112 63.1981 55.64 63.1981 54.932V51.392C63.1981 50.802 62.6081 50.212 62.0181 50.212Z" fill="black" fill-opacity="0.15"/>
<path d="M41.6039 66.732H38.0639C37.3559 66.732 36.8839 67.204 36.8839 67.912V71.452C36.8839 72.16 37.3559 72.632 38.0639 72.632H41.6039C42.3119 72.632 42.7839 72.16 42.7839 71.452V67.912C42.7839 67.322 42.3119 66.732 41.6039 66.732Z" fill="black" fill-opacity="0.15"/>
<path d="M62.0181 66.732H58.4781C57.7701 66.732 57.2981 67.204 57.2981 67.912V71.452C57.2981 72.16 57.7701 72.632 58.4781 72.632H62.0181C62.7261 72.632 63.1981 72.16 63.1981 71.452V67.912C63.1981 67.322 62.6081 66.732 62.0181 66.732Z" fill="black" fill-opacity="0.15"/>
<path d="M41.6039 83.252H38.0639C37.3559 83.252 36.8839 83.724 36.8839 84.432V87.972C36.8839 88.68 37.3559 89.152 38.0639 89.152H41.6039C42.3119 89.152 42.7839 88.68 42.7839 87.972V84.432C42.7839 83.842 42.3119 83.252 41.6039 83.252Z" fill="black" fill-opacity="0.15"/>
<path d="M62.0181 83.252H58.4781C57.7701 83.252 57.2981 83.724 57.2981 84.432V87.972C57.2981 88.68 57.7701 89.152 58.4781 89.152H62.0181C62.7261 89.152 63.1981 88.68 63.1981 87.972V84.432C63.1981 83.842 62.6081 83.252 62.0181 83.252Z" fill="black" fill-opacity="0.15"/>
</svg>
