<svg width="119" height="119" viewBox="0 0 119 119" fill="none" xmlns="http://www.w3.org/2000/svg">
<path d="M111.562 55.7813C110.787 55.7763 110.033 55.5292 109.405 55.0747L59.4997 19.4491L9.59413 55.0747C8.79349 55.5489 7.84418 55.7057 6.93358 55.5141C6.02299 55.3226 5.2173 54.7966 4.67556 54.04C4.13382 53.2835 3.89541 52.3513 4.00738 51.4275C4.11935 50.5038 4.57358 49.6555 5.28038 49.0503L57.3429 11.8628C57.9727 11.4144 58.7266 11.1734 59.4997 11.1734C60.2729 11.1734 61.0268 11.4144 61.6566 11.8628L113.719 49.0503C114.354 49.51 114.827 50.1585 115.072 50.9032C115.316 51.648 115.319 52.4509 115.08 53.1974C114.841 53.9438 114.372 54.5956 113.74 55.0596C113.108 55.5237 112.346 55.7762 111.562 55.7813Z" fill="#D9D9D9"/>
<path d="M18.5938 33.4688C17.6075 33.4688 16.6616 33.077 15.9642 32.3796C15.2668 31.6822 14.875 30.7363 14.875 29.75V14.875C14.875 13.8887 15.2668 12.9428 15.9642 12.2454C16.6616 11.548 17.6075 11.1563 18.5938 11.1562H33.4688C34.455 11.1563 35.4009 11.548 36.0983 12.2454C36.7957 12.9428 37.1875 13.8887 37.1875 14.875C37.1875 15.8613 36.7957 16.8072 36.0983 17.5046C35.4009 18.202 34.455 18.5938 33.4688 18.5938H22.3125V29.75C22.3125 30.7363 21.9207 31.6822 21.2233 32.3796C20.5259 33.077 19.58 33.4688 18.5938 33.4688Z" fill="#D9D9D9"/>
<path d="M92.9688 107.844H74.375C73.3887 107.844 72.4428 107.452 71.7454 106.755C71.048 106.057 70.6562 105.111 70.6562 104.125V78.0938H48.3438V104.125C48.3438 105.111 47.952 106.057 47.2546 106.755C46.5572 107.452 45.6113 107.844 44.625 107.844H26.0312C23.0724 107.844 20.2348 106.668 18.1426 104.576C16.0504 102.484 14.875 99.6463 14.875 96.6875V59.5C14.875 58.5137 15.2668 57.5678 15.9642 56.8704C16.6616 56.173 17.6075 55.7812 18.5938 55.7812C19.58 55.7812 20.5259 56.173 21.2233 56.8704C21.9207 57.5678 22.3125 58.5137 22.3125 59.5V96.6875C22.3125 97.6738 22.7043 98.6197 23.4017 99.3171C24.0991 100.014 25.045 100.406 26.0312 100.406H40.9062V74.375C40.9062 73.3887 41.298 72.4428 41.9954 71.7454C42.6928 71.048 43.6387 70.6562 44.625 70.6562H74.375C75.3613 70.6562 76.3072 71.048 77.0046 71.7454C77.702 72.4428 78.0938 73.3887 78.0938 74.375V100.406H92.9688C93.955 100.406 94.9009 100.014 95.5983 99.3171C96.2957 98.6197 96.6875 97.6738 96.6875 96.6875V59.5C96.6875 58.5137 97.0793 57.5678 97.7767 56.8704C98.4741 56.173 99.42 55.7812 100.406 55.7812C101.393 55.7812 102.338 56.173 103.036 56.8704C103.733 57.5678 104.125 58.5137 104.125 59.5V96.6875C104.125 99.6463 102.95 102.484 100.857 104.576C98.7652 106.668 95.9276 107.844 92.9688 107.844Z" fill="#D9D9D9"/>
</svg>
