<svg width="29" height="28" viewBox="0 0 29 28" fill="none" xmlns="http://www.w3.org/2000/svg">
<rect width="29" height="28" rx="3" fill="#574F44"/>
<path d="M19.5807 7.77422C18.9557 7.77422 18.4516 8.27825 18.4516 8.90325C18.4516 9.52825 18.9557 10.0323 19.5807 10.0323C20.2057 10.0323 20.7097 9.52825 20.7097 8.90325C20.7097 8.27825 20.2057 7.77422 19.5807 7.77422ZM14.5403 9.22583C11.9194 9.22583 9.78227 11.3629 9.78227 13.9839C9.78227 16.6049 11.9194 18.742 14.5403 18.742C17.1613 18.742 19.2984 16.6049 19.2984 13.9839C19.2984 11.3629 17.1613 9.22583 14.5403 9.22583ZM14.5403 17.0484C12.8468 17.0484 11.496 15.6774 11.496 14.0041C11.496 12.3105 12.8669 10.9597 14.5403 10.9597C16.2339 10.9597 17.5847 12.3307 17.5847 14.0041C17.5847 15.6774 16.2137 17.0484 14.5403 17.0484ZM24.1573 10.0323C24.1573 6.82664 21.5565 4.22583 18.3508 4.22583H10.6694C7.46372 4.22583 4.86292 6.82664 4.86292 10.0323V17.7137C4.86292 20.9194 7.46372 23.5202 10.6694 23.5202H18.3307C21.5363 23.5202 24.1371 20.9194 24.1371 17.7137V10.0323H24.1573ZM22.3226 17.6936C22.3226 19.8912 20.5282 21.6855 18.3307 21.6855H10.6694C8.47179 21.6855 6.67743 19.8912 6.67743 17.6936V10.0323C6.67743 7.81454 8.45162 6.04035 10.6694 6.04035H18.3307C20.5282 6.04035 22.3226 7.8347 22.3226 10.0323V17.6936Z" fill="#D4CDC2"/>
</svg>
