<svg width="20" height="20" viewBox="0 0 20 20" fill="none" xmlns="http://www.w3.org/2000/svg">
<path d="M20 15.0004C20 15.4389 19.8767 15.8453 19.6791 16.2029L13.3643 9.13756L19.6106 3.67256C19.8536 4.05816 20 4.51112 20 5.0006V15.0004ZM10 10.4204L18.6916 2.81549C18.335 2.62023 17.9333 2.50049 17.5001 2.50049H2.49998C2.06619 2.50049 1.66443 2.62023 1.3092 2.81549L10 10.4204ZM12.4232 9.96034L10.4113 11.7218C10.2936 11.8243 10.1471 11.8755 10 11.8755C9.85287 11.8755 9.70633 11.8243 9.58865 11.7218L7.57633 9.96025L1.18163 17.1159C1.56493 17.3564 2.01413 17.5005 2.49994 17.5005H17.5001C17.9858 17.5005 18.4352 17.3564 18.8184 17.1159L12.4232 9.96034ZM0.389439 3.67251C0.146493 4.05812 0 4.51108 0 5.0006V15.0005C0 15.4389 0.122751 15.8454 0.321056 16.203L6.63513 9.13637L0.389439 3.67251Z" fill="#574F44"/>
</svg>
