<svg width="134" height="134" viewBox="0 0 134 134" fill="none" xmlns="http://www.w3.org/2000/svg">
<path d="M10.1621 35.5662H13.8672L13.8782 20.5908C13.8782 18.5523 15.7268 16.9949 17.7495 17.3653L117.089 35.5662H123.843C128.777 35.5662 132.816 39.6068 132.816 44.5385C132.816 65.5993 132.816 86.6586 132.816 107.719C132.816 112.654 128.775 116.693 123.843 116.693H10.1621C5.22726 116.693 1.18982 112.651 1.18982 107.719C1.18982 86.6586 1.18982 65.5993 1.18982 44.5385C1.18982 39.6037 5.23201 35.5662 10.1621 35.5662ZM20.448 35.5662H80.6946L20.448 24.527V35.5662ZM115.12 69.8789C110.793 69.8789 110.793 63.2981 115.12 63.2981H126.237V44.5385C126.237 43.2185 125.162 42.1471 123.843 42.1471H10.1621C8.84845 42.1471 7.77064 43.2201 7.77064 44.5385V63.2981H18.8859C23.2145 63.2981 23.2145 69.8789 18.8859 69.8789H7.77064V82.3806H18.8859C23.2145 82.3806 23.2145 88.9614 18.8859 88.9614H7.77064V107.719C7.77064 109.035 8.84371 110.112 10.1621 110.112H123.843C125.163 110.112 126.237 109.039 126.237 107.719V88.9614H115.12C110.793 88.9614 110.793 82.3806 115.12 82.3806H126.237V69.8789H115.12ZM63.7124 54.9716C63.7124 50.6445 70.2932 50.6445 70.2932 54.9716V57.716H73.6912C78.0199 57.716 78.0199 64.2968 73.6912 64.2968H70.2932V72.8386H73.6912C80.0236 72.8386 84.4836 77.5265 84.4836 83.6911C84.4836 89.8556 80.0236 94.542 73.6912 94.542H70.2932V97.2879C70.2932 101.615 63.7124 101.615 63.7124 97.2879V94.542H60.3144C55.9857 94.542 55.9857 87.9627 60.3144 87.9627H63.7124V79.4194H60.3144C53.982 79.4194 49.522 74.7315 49.522 68.5685C49.522 62.4023 53.982 57.716 60.3144 57.716H63.7124V54.9716ZM70.2932 79.4194V87.9627H73.6912C76.3138 87.9627 77.9044 86.2107 77.9044 83.6911C77.9044 81.1714 76.3138 79.4194 73.6912 79.4194H70.2932ZM63.7124 72.8386V64.2968H60.3144C57.6918 64.2968 56.1012 66.0488 56.1012 68.5685C56.1012 71.0865 57.6918 72.8386 60.3144 72.8386H63.7124Z" fill="#D9D9D9"/>
</svg>
