<svg width="21" height="21" viewBox="0 0 21 21" fill="none" xmlns="http://www.w3.org/2000/svg">
<g clip-path="url(#clip0_116_885)">
<path d="M18.971 19.2047L17.579 20.5966C17.3304 20.844 16.6024 21.0004 16.5806 21.0004C12.1741 21.0375 7.93168 19.3073 4.81397 16.1889C1.68731 13.0628 -0.0448985 8.80369 0.00317169 4.38439C0.00317169 4.38181 0.162763 3.67433 0.410784 3.42824L1.80273 2.03502C2.3135 1.52491 3.29139 1.2942 3.97647 1.52233L4.26998 1.62101C4.95506 1.84914 5.67086 2.60534 5.86056 3.30129L6.56164 5.87366C6.75195 6.57093 6.49626 7.56293 5.98615 8.07304L5.05563 9.00356C5.96823 12.386 8.62066 15.0378 12.0012 15.9517L12.9317 15.0211C13.4418 14.511 14.4364 14.2559 15.1337 14.4456L17.7061 15.148C18.4008 15.3364 19.157 16.0516 19.3864 16.7373L19.4838 17.0308C19.7118 17.7167 19.4811 18.6946 18.971 19.2047ZM11.814 10.5007H13.1265C13.1265 9.05106 11.9512 7.87576 10.5016 7.87576V9.18821C11.225 9.18821 11.814 9.77777 11.814 10.5007ZM17.0638 10.5007C17.0638 6.876 14.1262 3.93835 10.5016 3.93835V5.25084C13.3969 5.25084 15.7514 7.60661 15.7514 10.5007H17.0638ZM10.5016 0.000976562V1.31343C15.5668 1.31343 19.6887 5.43537 19.6887 10.5007H21.0012C21.0012 4.70226 16.3 0.000976562 10.5016 0.000976562Z" fill="#574F44"/>
</g>
<defs>
<clipPath id="clip0_116_885">
<rect width="21" height="21" fill="white" transform="translate(0 0.000976562)"/>
</clipPath>
</defs>
</svg>
