<svg width="29" height="28" viewBox="0 0 29 28" fill="none" xmlns="http://www.w3.org/2000/svg">
<rect width="29" height="28" rx="3" fill="#574F44"/>
<path fill-rule="evenodd" clip-rule="evenodd" d="M15.4194 4.31287C10.0726 4.31287 5.7323 8.65319 5.7323 14C5.7323 15.8871 6.25649 17.6903 7.28391 19.2629L5.81617 22.5129C5.69036 22.8064 5.7323 23.1629 5.94198 23.4145C6.10972 23.6032 6.34036 23.708 6.59198 23.708C6.67585 23.708 6.73875 23.708 6.82262 23.6871L10.8904 22.5758C12.2952 23.3306 13.8678 23.729 15.4613 23.729C20.8081 23.729 25.1484 19.3887 25.1484 14.0419C25.1065 8.65319 20.7662 4.31287 15.4194 4.31287ZM15.4194 22.0096C13.9936 22.0096 12.6097 21.6322 11.3936 20.9193C11.2678 20.8354 11.121 20.7935 10.9742 20.7935C10.8904 20.7935 10.8275 20.7935 10.7436 20.8145L8.08069 21.5483L9.00327 19.5145C9.12907 19.2419 9.08714 18.9064 8.9194 18.6758C7.93391 17.3129 7.40972 15.6983 7.40972 14C7.40972 9.59674 11.0162 5.99029 15.4194 5.99029C19.8226 5.99029 23.4291 9.57577 23.4291 14C23.4291 18.4032 19.8436 22.0096 15.4194 22.0096Z" fill="#D4CDC2"/>
<path fill-rule="evenodd" clip-rule="evenodd" d="M19.1517 15.4468C18.7533 15.1951 18.2081 14.9226 17.7468 15.1322C17.3904 15.279 17.1388 15.8661 16.9081 16.1597C16.7823 16.3064 16.6355 16.3274 16.4468 16.2645C15.063 15.7193 14.0146 14.7968 13.2597 13.5387C13.1339 13.35 13.1549 13.1822 13.3017 12.9935C13.5323 12.7209 13.8259 12.4064 13.8888 12.05C13.9517 11.6935 13.7839 11.2532 13.6372 10.9387C13.4484 10.5193 13.2388 9.93224 12.8194 9.70159C12.442 9.49191 11.9388 9.59675 11.6033 9.8903C11.0162 10.3726 10.7226 11.1274 10.7436 11.8613C10.7436 12.0709 10.7646 12.2806 10.8275 12.4903C10.9533 12.9726 11.163 13.4338 11.4355 13.8742C11.6242 14.2097 11.8339 14.5242 12.0646 14.8177C12.7984 15.8242 13.721 16.6838 14.7694 17.3338C15.2936 17.6484 15.8807 17.9419 16.4678 18.1306C17.1388 18.3403 17.7259 18.5709 18.4388 18.4451C19.1936 18.2984 19.9275 17.8371 20.221 17.1242C20.3049 16.9145 20.3468 16.6629 20.3049 16.4532C20.1581 15.95 19.5291 15.6774 19.1517 15.4468Z" fill="#D4CDC2"/>
</svg>
